<svg width="192" height="192" viewBox="0 0 24 24" fill="none" xmlns="http://www.w3.org/2000/svg">
<rect width="24" height="24" rx="4" fill="#10b981"/>
<path d="M9.813 15.904L9 18.75L-0.813-2.846A4.5 4.5 0 00-3.09-3.09L2.25 12L2.846-0.813A4.5 4.5 0 003.09-3.09L9 5.25L.813 2.846A4.5 4.5 0 003.09 3.09L15.75 12L-2.846.813A4.5 4.5 0 00-3.09 3.09ZM18.259 8.715L18 9.75L-0.259-1.035A3.375 3.375 0 00-2.455-2.456L14.25 6L1.036-0.259A3.375 3.375 0 002.455-2.456L18 2.25L.259 1.035A3.375 3.375 0 002.456 2.456L21.75 6L-1.035.259A3.375 3.375 0 00-2.456 2.456ZM18 13.5L-0.259 1.035A3.375 3.375 0 00-2.455 2.456L14.25 18L1.036.259A3.375 3.375 0 002.455 2.456L18 21.75L.259-1.035A3.375 3.375 0 002.456-2.456L21.75 18L-1.035-.259A3.375 3.375 0 00-2.456-2.456Z" stroke="#ffffff" stroke-width="1.5" stroke-linecap="round" stroke-linejoin="round"/>
</svg>
